<svg clip-rule="evenodd" fill-rule="evenodd" height="53.0891mm" image-rendering="optimizeQuality" shape-rendering="geometricPrecision" text-rendering="geometricPrecision" viewBox="0 0 18536 5309" width="185.362mm" xmlns="http://www.w3.org/2000/svg"><path d="m3027 3593c-418 20-905-548-501-998 241-219 517-156 716 42 393 391 352 1069-249 1225-3-2-5-4-8-7 408-138 508-806 37-822-336-18-277 444 5 560zm22 881c2 1-161 144-179 298-72-7-171 30-159-87 15-154 205-211 338-211zm23 30c84 86 143 114 235 121-13 54-33 194-14 276-112 30-223 74-355-61-20-142 68-275 134-336zm269 120c105 4 140-25 187-46 86 43 242 230 185 312-84 120-245 59-342 17-5-96-15-189-30-283zm332-451c-78 192 427 468 145 739 26-165-147-320-300-393-150 54-288 75-402-51 508-66 179-380-33-506 346-77 524-413 529-855 233 470 138 812 61 1066zm164-1524c-81-225 160-352 322-400-82 161-50 374 64 496-65-6-140-12-188-69-84 60-177 17-198-27zm-2984 2187c-87 44-276 62-460 1-185-60-412 66-378 114l28 38c15 21-45 57-43 86 7 74 94 180 152 91 34-51 89-214 262-236 172-21 354 43 439-94zm462-1674c-143-215-226-474-226-752 0-61 4-121 11-179 318-389 763-393 1286-201-629 119-951 625-1071 1132zm1375 592c-77 14-156 21-236 21-403 0-766-175-1015-453 65-575 434-1118 1190-1011 1 1 1 2 1 3-255 133-428 399-428 706 0 331 201 614 488 734zm-1616 125c469 243 1184 241 1596 40-7-1-15-1-22-2-64 8-128 13-194 13-408 0-778-161-1051-422-33 166-149 301-329 371zm-732-871c-159-481 226-973 667-1071-49 149-75 262-75 473 0 210 40 460 151 672-206-48-315-20-459 145 18-132 20-241-44-345zm23 106c-120 139-250 498-250 692 32-26 82-112 99-145 32 96-23 179-35 198 94 74 224 126 330 97-86-40-148-143-114-243 253-268 530 96 340 236l-85 4c58 91 117 85 229 91-3-98-12-165 158-262 570-316 46-783-258-578l-255 213c15-80 82-272 23-413zm-83 448c-2-85 9-177 69-283 34 27 51 78 36 121zm1949-2687c-143-374 298-473 569-291 249 153 194-175 38-321-146-137-367-204-617-190 370-179 776 7 1116 184l-159 79c153 417-180 571-404 430-154-100-441-210-543 109zm393-464c-236-178-920-56-728 490 166 475 956 323 1034 82-910 444-1133-672-306-572zm5 888c356-291 1001-340 1207 150 93 249 385 145 604 195-141 145-55 290 139 370-40 247-390 354-190 742-292-165-230-453-132-599 70-116-29-85-87-184-259-52-286 45-477 30-26-457-318-860-1064-704zm-28 146c83 270-21 528-170 719 294-18 586 78 782 313 98-120 106-363 120-507 86 156-19 344 91 500 114 139 347-292 695-351-159-89-352 69-514 34-50-216-66-565-455-743 96 249 109 696 44 846-204-240-58-824-593-811zm-315 2706c-180 231 2 311-29 504-248-113-731-246-1063 330 14 74 108 132 215 185-167 106-282 69-402-3-189 165-356 81-513 28-101-22-222 16-272 114-76-234 192-352 316-342 255 33 569-106 512-497 202-87 296-106 284-368 300 77 586 90 952 49z" fill="#faab19"/><g fill="#fff" fill-rule="nonzero"><path d="m16059 1049h2477l-171 823h-1488l-85 400h1263l-157 765h-1264l-256 1223h-989z"/><path d="m15083 3235c-69 371-208 648-416 829s-510 272-906 272c-204 0-373-25-508-74s-243-114-324-193c-81-80-139-170-173-270-35-101-52-202-52-304 0-78 8-172 23-283s34-211 58-301h886c-9 60-24 132-45 218-21 85-32 158-32 218 0 69 18 124 54 164 36 41 89 61 158 61 87 0 150-23 189-70 39-46 66-110 81-191l481-2262h989z"/><path d="m12335 3235c-69 371-207 648-416 829-208 181-510 272-906 272-203 0-373-25-508-74s-242-114-323-193c-81-80-139-170-174-270-34-101-51-202-51-304 0-78 7-172 22-283s35-211 59-301h885c-8 60-23 132-44 218-21 85-32 158-32 218 0 69 18 124 54 164 36 41 88 61 157 61 87 0 150-23 189-70 39-46 66-110 81-191l481-2262h990z"/><path d="m7227 1049h1651c347 0 594 60 739 180 146 120 218 295 218 526 0 411-196 669-589 774h-4v9c150 33 268 110 355 233s130 260 130 410c0 194-36 360-108 496-71 137-168 248-290 333-121 86-262 149-422 189-161 41-328 61-502 61h-1843zm459 2446h634c206 0 418-86 418-323 0-235-188-275-382-275h-544zm247-1196h558c158 0 355-63 355-256 0-190-142-229-306-229h-508z"/><path d="m5730 1049h989l-665 3211h-990z"/></g></svg>